<svg id="visual" viewBox="0 0 900 600" width="900" height="600" xmlns="http://www.w3.org/2000/svg" xmlns:xlink="http://www.w3.org/1999/xlink" version="1.1"><rect x="0" y="0" width="900" height="600" fill="#191919"></rect><path d="M0 160L21.5 177.7C43 195.3 86 230.7 128.8 236.2C171.7 241.7 214.3 217.3 257.2 234.3C300 251.3 343 309.7 385.8 309C428.7 308.3 471.3 248.7 514.2 249.8C557 251 600 313 642.8 345.2C685.7 377.3 728.3 379.7 771.2 344.2C814 308.7 857 235.3 878.5 198.7L900 162L900 0L878.5 0C857 0 814 0 771.2 0C728.3 0 685.7 0 642.8 0C600 0 557 0 514.2 0C471.3 0 428.7 0 385.8 0C343 0 300 0 257.2 0C214.3 0 171.7 0 128.8 0C86 0 43 0 21.5 0L0 0Z" fill="#715DF2" stroke-linecap="round" stroke-linejoin="miter"></path></svg>